<?xml version="1.0" encoding="UTF-8" standalone="no"?>
<svg
   xmlns:dc="http://purl.org/dc/elements/1.1/"
   xmlns:cc="http://creativecommons.org/ns#"
   xmlns:rdf="http://www.w3.org/1999/02/22-rdf-syntax-ns#"
   xmlns:svg="http://www.w3.org/2000/svg"
   xmlns="http://www.w3.org/2000/svg"
   xmlns:sodipodi="http://sodipodi.sourceforge.net/DTD/sodipodi-0.dtd"
   xmlns:inkscape="http://www.inkscape.org/namespaces/inkscape"
   inkscape:export-ydpi="96"
   inkscape:export-xdpi="96"
   inkscape:export-filename="D:\NewProject\Webs\EchoGlow\docs\icons\favicon.png"
   width="221"
   height="318"
   viewBox="0 0 58.472913 84.137502"
   version="1.1"
   id="svg871"
   inkscape:version="1.0 (4035a4fb49, 2020-05-01)"
   sodipodi:docname="favicon.svg">
  <metadata
     id="metadata23">
    <rdf:RDF>
      <cc:Work
         rdf:about="">
        <dc:format>image/svg+xml</dc:format>
        <dc:type
           rdf:resource="http://purl.org/dc/dcmitype/StillImage" />
      </cc:Work>
    </rdf:RDF>
  </metadata>
  <sodipodi:namedview
     inkscape:current-layer="layer1"
     inkscape:window-maximized="1"
     inkscape:window-y="-8"
     inkscape:window-x="-8"
     inkscape:cy="159"
     inkscape:cx="110.5"
     inkscape:zoom="1.6220892"
     showgrid="false"
     id="namedview21"
     inkscape:window-height="705"
     inkscape:window-width="1366"
     inkscape:pageshadow="2"
     inkscape:pageopacity="0"
     guidetolerance="10"
     gridtolerance="10"
     objecttolerance="10"
     borderopacity="1"
     bordercolor="#111111"
     pagecolor="#ffffff" />
  <defs
     id="defs865">
    <!-- Oryginalny układ + więcej niebieskiego na dole -->
    <linearGradient
       y2="1"
       x2="1"
       y1="0"
       x1="0"
       id="accent">
      <stop
         id="stop2"
         stop-color="#00d0ff"
         offset="0%" />
      <stop
         id="stop4"
         stop-color="#2a7bff"
         offset="34%" />
      <stop
         id="stop6"
         stop-color="#ffffff"
         offset="46%" />
      <stop
         id="stop8"
         stop-color="#ffffff"
         offset="54%" />
      <stop
         id="stop10"
         stop-color="#7a4dff"
         offset="72%" />
      <stop
         id="stop12"
         stop-color="#3a8bff"
         offset="88%" />
      <stop
         id="stop14"
         stop-color="#008cff"
         offset="100%" />
    </linearGradient>
  </defs>
  <g
     inkscape:label="Warstwa 1"
     inkscape:groupmode="layer"
     id="layer1"
     transform="translate(-101.64645,-103.79474)">
    <path
       style="fill:url(#accent);stroke-width:0.264583"
       d="m 106.28039,187.68198 c -1.99608,-0.60718 -3.66242,-2.12912 -4.23686,-3.86971 -1.3359,-4.0478 2.7407,-10.65722 8.35458,-13.54538 5.07246,-2.60961 10.84784,-3.05396 13.6976,-1.05386 0.4248,0.29814 0.84682,0.42517 0.97671,0.294 0.37864,-0.38237 0.91919,-3.72771 4.50499,-27.87992 6.02712,-40.59585 5.50811,-37.64994 6.65692,-37.78473 0.75816,-0.0889 0.76784,-0.0612 1.54025,4.40752 0.9719,5.62292 4.74286,13.22665 9.31709,18.78688 0.83281,1.01233 3.09393,3.25835 5.02471,4.99115 3.95788,3.55205 6.23731,6.12261 7.23199,8.15567 0.6642,1.35757 0.67529,1.4765 0.59434,6.37438 -0.0825,4.991 -0.0825,4.991 -1.44603,7.76912 -1.82406,3.7164 -4.19241,7.00675 -7.23541,10.05217 -2.45951,2.46147 -3.78613,3.44782 -4.14908,3.08488 -0.0996,-0.0996 0.049,-0.46788 0.33034,-0.81837 3.30958,-4.12364 4.77301,-6.43846 6.4083,-10.13653 1.92711,-4.358 2.64539,-9.1528 1.80446,-12.04548 -0.84481,-2.90605 -2.61333,-4.15836 -9.42111,-6.67122 -4.8019,-1.77246 -7.22316,-2.97888 -8.84669,-4.40797 -1.2765,-1.12363 -2.70691,-3.6813 -2.96642,-5.30417 -0.0884,-0.55296 -0.2494,-1.00539 -0.35772,-1.00539 -0.23539,0 -0.11759,-0.70524 -2.38653,14.2875 -5.50925,36.40419 -5.17417,34.42664 -6.20065,36.5943 -1.96772,4.15533 -7.2108,8.25305 -12.2208,9.55115 -1.68397,0.43632 -5.77697,0.53843 -6.97498,0.17401 z m 9.83503,-2.45967 c 2.1243,-1.13188 6.39706,-4.40141 6.66524,-5.10027 0.33961,-0.88502 -0.41483,-0.55696 -2.28361,0.99302 -1.09379,0.9072 -3.1418,2.36084 -4.55112,3.23032 -1.40933,0.86948 -2.61945,1.67315 -2.68915,1.78594 -0.31628,0.51174 0.94475,0.11075 2.85864,-0.90901 z m 33.446,-48.32544 c -0.079,-0.12777 -1.24686,-0.85913 -2.5953,-1.62523 -5.20155,-2.9552 -7.06245,-4.48893 -9.70435,-7.99818 -0.62993,-0.83674 -1.26334,-1.52135 -1.40757,-1.52135 -0.43061,0 0.0339,1.84455 0.92077,3.65608 0.98109,2.00405 2.34917,3.24533 5.32385,4.83041 3.4096,1.81684 7.93992,3.43059 7.4626,2.65827 z"
       id="path1448"
       inkscape:export-xdpi="96"
       inkscape:export-ydpi="96"
       sodipodi:nodetypes="scssscccssssssscsssscscssssssscscssscsc" />
  </g>
</svg>
