<?xml version="1.0" encoding="UTF-8" standalone="no"?>
<svg
  xmlns="http://www.w3.org/2000/svg"
  width="44"
  height="44"
  viewBox="0 0 64 64"
  version="1.1"
  aria-hidden="true">

  <defs>
    <linearGradient id="btnGradient" x1="4" y1="4" x2="60" y2="60" gradientUnits="userSpaceOnUse">
      <stop offset="0%" stop-color="#00d0ff"/>
      <stop offset="50%" stop-color="#ffffff"/>
      <stop offset="100%" stop-color="#4a00e0"/>
    </linearGradient>
    <linearGradient id="iconGradient" x1="16" y1="16" x2="48" y2="48" gradientUnits="userSpaceOnUse">
      <stop offset="0%" stop-color="#00d0ff"/>
      <stop offset="50%" stop-color="#ffffff"/>
      <stop offset="100%" stop-color="#4a00e0"/>
    </linearGradient>
  </defs>

  <rect x="4" y="4" width="56" height="56" rx="14" ry="14" fill="url(#btnGradient)" opacity="0.92"/>
  <rect x="6" y="6" width="52" height="52" rx="13" ry="13" fill="#000000" fill-opacity="0.65"/>
  <path d="M12 16 C22 8, 42 8, 52 14" fill="none" stroke="#ffffff" stroke-opacity="0.15" stroke-width="3" stroke-linecap="round"/>

  <g
    transform="translate(2 2)"
    fill="none"
    stroke="url(#iconGradient)"
    stroke-opacity="0.98"
    stroke-width="3.6"
    stroke-linecap="round"
    stroke-linejoin="round">
    <path d="M17 22 C21 18 29 17 35 18.5 C40 19.8 43 22.5 44.2 26.8"/>
    <path d="M41.8 23.2 C44.6 24.4 47.1 26.1 49.2 28.2"/>
    <path d="M42.1 31.6 C44.8 30.7 47.2 29.5 49.2 28.2"/>

    <path d="M47 42 C43 46 35 47 29 45.5 C24 44.2 21 41.5 19.8 37.2"/>
    <path d="M22.2 40.8 C19.4 39.6 16.9 37.9 14.8 35.8"/>
    <path d="M21.9 32.4 C19.2 33.3 16.8 34.5 14.8 35.8"/>
  </g>
</svg>


