<?xml version="1.0" encoding="UTF-8" standalone="no"?>
<svg
   xmlns:dc="http://purl.org/dc/elements/1.1/"
   xmlns:cc="http://creativecommons.org/ns#"
   xmlns:rdf="http://www.w3.org/1999/02/22-rdf-syntax-ns#"
   xmlns:svg="http://www.w3.org/2000/svg"
   xmlns="http://www.w3.org/2000/svg"
   version="1.1"
   width="44"
   height="44"
   viewBox="0 0 56 56">
  <metadata>
    <rdf:RDF>
      <cc:Work rdf:about="">
        <dc:format>image/svg+xml</dc:format>
        <dc:type rdf:resource="http://purl.org/dc/dcmitype/StillImage" />
      </cc:Work>
    </rdf:RDF>
  </metadata>
  <defs>
    <linearGradient id="btnGradient" gradientUnits="userSpaceOnUse" x1="0" y1="0" x2="56" y2="56">
      <stop offset="0%" stop-color="#00d0ff" />
      <stop offset="50%" stop-color="#ffffff" />
      <stop offset="100%" stop-color="#4a00e0" />
    </linearGradient>
    <linearGradient id="iconGradient" gradientUnits="userSpaceOnUse" x1="14" y1="14" x2="42" y2="42">
      <stop offset="0%" stop-color="#00d0ff" />
      <stop offset="50%" stop-color="#ffffff" />
      <stop offset="100%" stop-color="#4a00e0" />
    </linearGradient>
  </defs>
  <rect x="0" y="0" width="56" height="56" rx="14" ry="14" fill="url(#btnGradient)" opacity="0.9" />
  <rect x="2" y="2" width="52" height="52" rx="13" ry="13" fill="#000000" fill-opacity="0.65" />
  <path d="M 8,12 C 18,4 38,4 48,10" fill="none" stroke="#ffffff" stroke-opacity="0.15" stroke-width="3" stroke-linecap="round" />
  <path d="M 16,32 28,20 40,32 c 1,1 1,3 0,4 -1,1 -3,1 -4,0 l -8,-8 -8,8 c -1,1 -3,1 -4,0 -1,-1 -1,-3 0,-4 z"
        fill="url(#iconGradient)" />
</svg>
