<svg xmlns="http://www.w3.org/2000/svg" viewBox="0 0 1200 320" role="img" aria-label="HelloSound banner">
  <defs>
    <linearGradient id="bg" x1="0" x2="1">
      <stop offset="0" stop-color="#06060b"/>
      <stop offset="0.55" stop-color="#0b0613"/>
      <stop offset="1" stop-color="#06060b"/>
    </linearGradient>

    <linearGradient id="neon" x1="0" x2="1">
      <stop offset="0" stop-color="#7cf7ff"/>
      <stop offset="0.5" stop-color="#b388ff"/>
      <stop offset="1" stop-color="#7cf7ff"/>
    </linearGradient>

    <!-- Subtelny blur = 1 -->
    <filter id="glow" x="-15%" y="-15%" width="130%" height="130%">
      <feGaussianBlur stdDeviation="1" result="blur"/>
      <feMerge>
        <feMergeNode in="blur"/>
        <feMergeNode in="SourceGraphic"/>
      </feMerge>
    </filter>

    <style>
      .title { font: 700 64px/1.1 system-ui, -apple-system, Segoe UI, Roboto, Arial, sans-serif; letter-spacing: .5px; }
      .sub   { font: 500 20px/1.2 system-ui, -apple-system, Segoe UI, Roboto, Arial, sans-serif; opacity: .95; }

      .stroke { fill: none; stroke: url(#neon); stroke-width: 2; opacity: .95; }
      .wave { stroke-linecap: round; stroke-linejoin: round; }
      .note { fill: url(#neon); }

      @keyframes drift {
        0%   { transform: translateX(-15px); opacity: .6; }
        50%  { opacity: 1; }
        100% { transform: translateX(15px); opacity: .6; }
      }

      .w1 { animation: drift 4s ease-in-out infinite alternate; }
      .w2 { animation: drift 5s ease-in-out infinite alternate; }
      .w3 { animation: drift 6s ease-in-out infinite alternate; }

      @keyframes pulse {
        0%, 100% { transform: translateY(0px); }
        50%      { transform: translateY(-2px); }
      }

      .p { animation: pulse 2s ease-in-out infinite; transform-origin: 50% 50%; }
    </style>
  </defs>

  <rect width="1200" height="320" fill="url(#bg)"/>

  <g filter="url(#glow)">
    <path class="stroke wave w1" d="M80 210 C 170 170, 260 250, 350 210 S 530 170, 620 210 S 800 250, 890 210 S 1070 170, 1160 210"/>
    <path class="stroke wave w2" d="M80 235 C 170 195, 260 275, 350 235 S 530 195, 620 235 S 800 275, 890 235 S 1070 195, 1160 235" opacity=".6"/>
    <path class="stroke wave w3" d="M80 185 C 170 145, 260 225, 350 185 S 530 145, 620 185 S 800 225, 890 185 S 1070 145, 1160 185" opacity=".45"/>
  </g>

  <g class="p" filter="url(#glow)">
    <path class="note" d="M865 78v124.5c-6.8-6.1-18.8-9.5-32.9-7.3-22.5 3.4-38.8 21.2-36.4 39.8 2.4 18.6 22.5 30.8 45 27.4 19.6-3 33.9-17.2 36-33.6V120.6l67-16.7V73.8l-67 16.8V78z
                      M804.5 271.8c-13.6 2.1-25.5-4.8-26.8-15.5-1.3-10.7 8.6-21 22.2-23.1 13.6-2.1 25.5 4.8 26.8 15.5 1.3 10.7-8.6 21-22.2 23.1z"/>
  </g>

  <g filter="url(#glow)">
    <text x="90" y="125" fill="url(#neon)" class="title">HelloSound</text>
    <text x="92" y="162" fill="#e8e8ff" class="sub">Neon Audio Playground • Drag &amp; Drop • Visualizer • EQ</text>
  </g>
</svg>
